<svg width="50" height="50" viewBox="0 0 50 50" fill="none" xmlns="http://www.w3.org/2000/svg">
  <path d="M4.16675 25.0001C4.16675 15.1791 4.16675 10.2687 7.21773 7.21773C10.2687 4.16675 15.1791 4.16675 25.0001 4.16675C34.8209 4.16675 39.7315 4.16675 42.7824 7.21773C45.8334 10.2687 45.8334 15.1791 45.8334 25.0001C45.8334 34.8209 45.8334 39.7315 42.7824 42.7824C39.7315 45.8334 34.8209 45.8334 25.0001 45.8334C15.1791 45.8334 10.2687 45.8334 7.21773 42.7824C4.16675 39.7315 4.16675 34.8209 4.16675 25.0001Z" fill="#8F65E9"/>
  <path d="M26.5625 14.5833C26.5625 13.7203 25.8629 13.0208 25 13.0208C24.1371 13.0208 23.4375 13.7203 23.4375 14.5833V25.3943L19.8548 21.8118C19.2447 21.2016 18.2553 21.2016 17.6451 21.8118C17.035 22.422 17.035 23.4112 17.6451 24.0214L23.8952 30.2714C24.1881 30.5645 24.5856 30.7291 25 30.7291C25.4144 30.7291 25.8119 30.5645 26.1048 30.2714L32.3548 24.0214C32.965 23.4112 32.965 22.422 32.3548 21.8118C31.7446 21.2016 30.7554 21.2016 30.1452 21.8118L26.5625 25.3943V14.5833Z" fill="#FAFAFF"/>
  <path d="M16.6667 33.8542C15.8038 33.8542 15.1042 34.5538 15.1042 35.4167C15.1042 36.2797 15.8038 36.9792 16.6667 36.9792H33.3334C34.1963 36.9792 34.8959 36.2797 34.8959 35.4167C34.8959 34.5538 34.1963 33.8542 33.3334 33.8542H16.6667Z" fill="#FAFAFF"/>
</svg>
