<svg width="65" height="34" viewBox="0 0 65 34" fill="none" xmlns="http://www.w3.org/2000/svg">
<path d="M6.048 0.399998H13.2L18.672 34H13.392L12.432 27.328V27.424H6.432L5.472 34H0.576L6.048 0.399998ZM11.808 22.864L9.456 6.256H9.36L7.056 22.864H11.808ZM22.1936 0.399998H29.7296L33.0896 24.448H33.1856L36.5456 0.399998H44.0816V34H39.0896V8.56H38.9936L35.1536 34H30.7376L26.8976 8.56H26.8016V34H22.1936V0.399998ZM48.9817 0.399998H56.7577C59.3817 0.399998 61.3497 1.104 62.6617 2.512C63.9737 3.92 64.6297 5.984 64.6297 8.704V12.016C64.6297 14.736 63.9737 16.8 62.6617 18.208C61.3497 19.616 59.3817 20.32 56.7577 20.32H54.2617V34H48.9817V0.399998ZM56.7577 15.52C57.6217 15.52 58.2617 15.28 58.6777 14.8C59.1257 14.32 59.3497 13.504 59.3497 12.352V8.368C59.3497 7.216 59.1257 6.4 58.6777 5.92C58.2617 5.44 57.6217 5.2 56.7577 5.2H54.2617V15.52H56.7577Z" fill="#575774"/>
</svg>
