<svg width="63" height="34" viewBox="0 0 63 34" fill="none" xmlns="http://www.w3.org/2000/svg">
<path d="M6.048 0.399998H13.2L18.672 34H13.392L12.432 27.328V27.424H6.432L5.472 34H0.576L6.048 0.399998ZM11.808 22.864L9.456 6.256H9.36L7.056 22.864H11.808ZM21.2336 0.399998H28.7696L32.1296 24.448H32.2256L35.5856 0.399998H43.1216V34H38.1296V8.56H38.0336L34.1936 34H29.7776L25.9376 8.56H25.8416V34H21.2336V0.399998ZM47.0618 0.399998H54.8378C57.4618 0.399998 59.4298 1.104 60.7418 2.512C62.0538 3.92 62.7098 5.984 62.7098 8.704V12.016C62.7098 14.736 62.0538 16.8 60.7418 18.208C59.4298 19.616 57.4618 20.32 54.8378 20.32H52.3418V34H47.0618V0.399998ZM54.8378 15.52C55.7018 15.52 56.3418 15.28 56.7578 14.8C57.2058 14.32 57.4297 13.504 57.4297 12.352V8.368C57.4297 7.216 57.2058 6.4 56.7578 5.92C56.3418 5.44 55.7018 5.2 54.8378 5.2H52.3418V15.52H54.8378Z" fill="#575774"/>
</svg>
