<svg width="29" height="26" viewBox="0 0 29 26" fill="none" xmlns="http://www.w3.org/2000/svg">
<path d="M28.9627 3.68507C28.9139 3.56664 28.8197 3.47239 28.7012 3.42357C28.6423 3.39893 28.5794 3.38635 28.5166 3.38635H18.0834L14.8861 0.189109C14.8731 0.172683 14.8596 0.15671 14.8446 0.141757C14.6556 -0.0472523 14.3496 -0.0472523 14.1611 0.141757L10.9166 3.38635H0.483314C0.420499 3.38635 0.357628 3.39893 0.298665 3.42357C0.180287 3.47245 0.0860369 3.5667 0.0372128 3.68507C0.0125742 3.74404 0 3.80691 0 3.86972V25.1364C0 25.1992 0.0125742 25.2621 0.0372128 25.321C0.0860369 25.4394 0.180287 25.5337 0.298722 25.5825C0.357685 25.6067 0.420499 25.6197 0.48337 25.6197H28.5166C28.5794 25.6197 28.6423 25.6067 28.7013 25.5825C28.8197 25.5337 28.914 25.4394 28.9628 25.321C28.9874 25.2621 29 25.1992 29 25.1364V3.86972C28.9999 3.80691 28.9874 3.74404 28.9627 3.68507ZM14.5 1.16984L16.7165 3.38641H12.2834L14.5 1.16984ZM27.3498 4.35304L26.3832 5.31972H2.61674L1.65005 4.35304H27.3498ZM23.4726 12.5378L23.6393 12.604C23.8544 12.6905 23.9776 12.9173 23.9341 13.1444C23.8906 13.372 23.6915 13.5364 23.4595 13.5364H17.5135C16.8045 14.419 15.718 14.9864 14.5 14.9864C13.282 14.9864 12.1954 14.419 11.4864 13.5364H5.54046C5.30846 13.5364 5.10931 13.3721 5.06536 13.1439C5.02237 12.9167 5.14562 12.6901 5.36114 12.604L5.55836 12.5252C6.25968 12.2444 6.50958 11.6151 6.50958 11.1197C6.50958 10.6243 6.25968 9.99449 5.55836 9.71417L5.36114 9.63539C5.14556 9.54935 5.02231 9.32268 5.06536 9.09504C5.10937 8.8674 5.30846 8.70303 5.54046 8.70303H11.4864C12.1954 7.82046 13.282 7.25303 14.5 7.25303C15.718 7.25303 16.8045 7.82046 17.5135 8.70303H23.4595C23.6915 8.70303 23.8906 8.86734 23.9341 9.09453C23.9776 9.32217 23.8544 9.54884 23.6393 9.63539L23.4731 9.7016H23.4726C22.765 9.98486 22.5127 10.6199 22.5127 11.1197C22.5127 11.6194 22.765 12.2546 23.4726 12.5378ZM17.4 19.3364H22.7166C22.9839 19.3364 23.2 19.5524 23.2 19.8197C23.2 20.087 22.9839 20.303 22.7166 20.303H17.4C17.1327 20.303 16.9167 20.087 16.9167 19.8197C16.9167 19.5524 17.1327 19.3364 17.4 19.3364ZM17.615 17.4842L19.065 16.5175C19.2617 16.3856 19.5266 16.4166 19.688 16.5915C20.3535 17.3117 21.0409 16.9748 21.0481 16.9719C21.2337 16.8772 21.4594 16.913 21.6083 17.0614L22.575 18.028C22.764 18.217 22.764 18.5225 22.575 18.7115C22.4807 18.8057 22.357 18.8531 22.2333 18.8531C22.1095 18.8531 21.9858 18.8057 21.8916 18.7115L21.1385 17.9584C20.6591 18.0759 19.9476 18.058 19.2845 17.5326L18.1515 18.2885C17.9283 18.436 17.629 18.3765 17.4811 18.1546C17.3328 17.9323 17.3927 17.6326 17.615 17.4842ZM14.9833 18.3697H10.15C9.88269 18.3697 9.66667 18.1537 9.66667 17.8864C9.66667 17.6191 9.88269 17.4031 10.15 17.4031H14.9833C15.2506 17.4031 15.4666 17.6191 15.4666 17.8864C15.4667 18.1537 15.2506 18.3697 14.9833 18.3697ZM15.4667 19.8197C15.4667 20.087 15.2506 20.303 14.9833 20.303H13.05C12.7827 20.303 12.5667 20.087 12.5667 19.8197C12.5667 19.5524 12.7827 19.3364 13.05 19.3364H14.9833C15.2506 19.3364 15.4667 19.5524 15.4667 19.8197ZM7.24999 19.3364H11.1167C11.384 19.3364 11.6 19.5524 11.6 19.8197C11.6 20.087 11.384 20.303 11.1167 20.303H7.24999C6.9827 20.303 6.76667 20.087 6.76667 19.8197C6.76667 19.5524 6.9827 19.3364 7.24999 19.3364ZM6.76667 17.8864C6.76667 17.6191 6.9827 17.4031 7.24999 17.4031H8.21667C8.48396 17.4031 8.69998 17.6191 8.69998 17.8864C8.69998 18.1537 8.48396 18.3697 8.21667 18.3697H7.24999C6.9827 18.3697 6.76667 18.1537 6.76667 17.8864ZM0.966684 5.03646L1.93337 6.00314V23.0029L0.966684 23.9696V5.03646ZM1.65011 24.653L2.61679 23.6863H26.3832L27.3499 24.653H1.65011ZM28.0333 23.9696L27.0666 23.0029V6.00314L28.0333 5.03646V23.9696Z" fill="#8F65E9"/>
<path d="M18.0842 9.66968C18.105 9.72094 18.1205 9.77361 18.1388 9.82578C18.1591 9.88231 18.1809 9.93793 18.1988 9.99542C18.219 10.0631 18.2345 10.1322 18.2514 10.2009C18.2645 10.2535 18.2799 10.3058 18.2906 10.3594C18.3065 10.4391 18.3167 10.5204 18.3273 10.6011C18.3336 10.646 18.3423 10.6895 18.3472 10.735C18.3597 10.8621 18.3665 10.9906 18.3665 11.1197C18.3665 11.2487 18.3597 11.3773 18.3472 11.5044C18.3423 11.5499 18.3336 11.5939 18.3273 11.6383C18.3167 11.719 18.3065 11.8003 18.2906 11.88C18.2799 11.9337 18.2645 11.9859 18.2514 12.039C18.2345 12.1077 18.219 12.1763 18.1988 12.2439C18.1809 12.3014 18.1591 12.3575 18.1388 12.4141C18.1205 12.4658 18.105 12.5185 18.0842 12.5697H21.9997C21.7078 12.1603 21.5459 11.661 21.5459 11.1197C21.5459 10.5784 21.7078 10.0791 21.9997 9.66973L18.0842 9.66968Z" fill="#8F65E9"/>
<path d="M17.3562 10.6325C17.334 10.5039 17.3065 10.3768 17.2678 10.2526C17.2668 10.2511 17.2663 10.2492 17.2658 10.2478C17.2262 10.1226 17.1754 10.0013 17.1194 9.88241C17.1087 9.86015 17.0981 9.83795 17.087 9.8162C17.0271 9.69731 16.9594 9.58131 16.8825 9.47012C16.3581 8.71567 15.4867 8.21973 14.5001 8.21973C13.5136 8.21973 12.6422 8.71561 12.1178 9.47012C12.0409 9.58131 11.9733 9.69731 11.9133 9.8162C11.9022 9.83795 11.8916 9.86021 11.8809 9.88241C11.8248 10.0013 11.7741 10.1226 11.7344 10.2478C11.7339 10.2493 11.7335 10.2512 11.7325 10.2526C11.6938 10.3768 11.6663 10.5039 11.6441 10.6325C11.6392 10.6639 11.6344 10.6949 11.6301 10.7262C11.6122 10.8558 11.6001 10.9867 11.6001 11.1197C11.6001 11.2526 11.6122 11.3836 11.6301 11.5131C11.6344 11.5445 11.6392 11.5755 11.6441 11.6068C11.6663 11.7354 11.6938 11.8625 11.7325 11.9867C11.7335 11.9882 11.734 11.9901 11.7344 11.9915C11.7741 12.1167 11.8248 12.238 11.8809 12.3569C11.8916 12.3792 11.9022 12.4014 11.9133 12.4231C11.9732 12.542 12.0409 12.658 12.1178 12.7692C12.6422 13.5237 13.5136 14.0196 14.5001 14.0196C15.4867 14.0196 16.3581 13.5237 16.8825 12.7692C16.9594 12.658 17.027 12.542 17.087 12.4231C17.0981 12.4014 17.1087 12.3791 17.1194 12.3569C17.1754 12.238 17.2262 12.1167 17.2658 11.9915C17.2664 11.9901 17.2668 11.9881 17.2678 11.9867C17.3065 11.8625 17.334 11.7354 17.3562 11.6068C17.3611 11.5754 17.3659 11.5445 17.3702 11.5131C17.3881 11.3836 17.4002 11.2526 17.4002 11.1197C17.4002 10.9867 17.3881 10.8558 17.3702 10.7262C17.3659 10.6948 17.3611 10.6639 17.3562 10.6325ZM13.5336 11.1197C13.5336 11.387 13.3176 11.603 13.0503 11.603C12.783 11.603 12.567 11.387 12.567 11.1197C12.567 10.0534 13.4341 9.18635 14.5003 9.18635C14.7675 9.18635 14.9836 9.40238 14.9836 9.66967C14.9836 9.93695 14.7675 10.153 14.5003 10.153C13.9672 10.153 13.5336 10.5866 13.5336 11.1197ZM14.5003 13.053C14.233 13.053 14.0169 12.8369 14.0169 12.5697C14.0169 12.3024 14.233 12.0863 14.5003 12.0863C15.0334 12.0863 15.4669 11.6528 15.4669 11.1197C15.4669 10.8524 15.683 10.6364 15.9503 10.6364C16.2175 10.6364 16.4336 10.8524 16.4336 11.1197C16.4336 12.1859 15.5665 13.053 14.5003 13.053Z" fill="#8F65E9"/>
<path d="M10.6726 10.5989C10.6833 10.5186 10.6934 10.4384 10.7093 10.3596C10.72 10.3055 10.7354 10.2528 10.7485 10.1996C10.7654 10.1315 10.7809 10.0628 10.8011 9.99566C10.8185 9.93766 10.8408 9.88159 10.8611 9.82506C10.8794 9.77335 10.8949 9.72067 10.9157 9.66992H7.01953C7.31293 10.0784 7.47577 10.5776 7.47577 11.1199C7.47577 11.6617 7.31287 12.161 7.01953 12.5699H10.9157C10.8949 12.5187 10.8794 12.4665 10.8611 12.4148C10.8408 12.3577 10.8185 12.3017 10.8011 12.2437C10.7809 12.1765 10.7654 12.1084 10.7485 12.0402C10.7354 11.9865 10.72 11.9343 10.7093 11.8797C10.6933 11.8009 10.6837 11.7207 10.6726 11.641C10.6663 11.595 10.6576 11.5506 10.6528 11.5042C10.6402 11.3771 10.6335 11.2489 10.6335 11.1199C10.6335 10.9904 10.6402 10.8623 10.6528 10.7352C10.6572 10.6893 10.6663 10.6444 10.6726 10.5989Z" fill="#8F65E9"/>
</svg>
