<svg width="36" height="20" viewBox="0 0 36 20" fill="none" xmlns="http://www.w3.org/2000/svg">
<mask id="path-1-outside-1_374_36" maskUnits="userSpaceOnUse" x="17" y="-1" width="19" height="21" fill="black">
<rect fill="white" x="17" y="-1" width="19" height="21"/>
<path fill-rule="evenodd" clip-rule="evenodd" d="M23.0003 2.26828C22.0437 1.716 20.8206 2.04375 20.2683 3.00033C19.716 3.95692 20.0437 5.1801 21.0003 5.73238L28.1026 9.83285L21.0003 13.9333C20.0437 14.4856 19.716 15.7088 20.2683 16.6654C20.8206 17.622 22.0437 17.9497 23.0003 17.3974L32.5266 11.8974C33.2705 11.468 33.6341 10.6328 33.4993 9.83286C33.6341 9.03286 33.2705 8.19774 32.5266 7.76828L23.0003 2.26828Z"/>
</mask>
<path fill-rule="evenodd" clip-rule="evenodd" d="M23.0003 2.26828C22.0437 1.716 20.8206 2.04375 20.2683 3.00033C19.716 3.95692 20.0437 5.1801 21.0003 5.73238L28.1026 9.83285L21.0003 13.9333C20.0437 14.4856 19.716 15.7088 20.2683 16.6654C20.8206 17.622 22.0437 17.9497 23.0003 17.3974L32.5266 11.8974C33.2705 11.468 33.6341 10.6328 33.4993 9.83286C33.6341 9.03286 33.2705 8.19774 32.5266 7.76828L23.0003 2.26828Z" fill="#8F65E9"/>
<path d="M20.2683 3.00033L22.0003 4.00033L20.2683 3.00033ZM23.0003 2.26828L22.0003 4.00033L22.0003 4.00033L23.0003 2.26828ZM21.0003 5.73238L22.0003 4.00033L21.0003 5.73238ZM28.1026 9.83285L29.1026 11.5649L32.1026 9.83285L29.1026 8.1008L28.1026 9.83285ZM21.0003 13.9333L20.0003 12.2013L20.0003 12.2013L21.0003 13.9333ZM23.0003 17.3974L24.0003 19.1295L24.0003 19.1295L23.0003 17.3974ZM32.5266 11.8974L33.5266 13.6295L33.5266 13.6295L32.5266 11.8974ZM33.4993 9.83286L31.5271 9.50069L31.4712 9.83286L31.5271 10.165L33.4993 9.83286ZM32.5266 7.76828L33.5266 6.03623L33.5266 6.03623L32.5266 7.76828ZM22.0003 4.00033L22.0003 4.00033L24.0003 0.536232C22.0872 -0.568337 19.6408 0.0871635 18.5362 2.00033L22.0003 4.00033ZM22.0003 4.00033L22.0003 4.00033L18.5362 2.00033C17.4317 3.9135 18.0872 6.35987 20.0003 7.46444L22.0003 4.00033ZM29.1026 8.1008L22.0003 4.00033L20.0003 7.46444L27.1026 11.5649L29.1026 8.1008ZM22.0003 15.6654L29.1026 11.5649L27.1026 8.1008L20.0003 12.2013L22.0003 15.6654ZM22.0003 15.6654L22.0003 15.6654L20.0003 12.2013C18.0872 13.3058 17.4317 15.7522 18.5362 17.6654L22.0003 15.6654ZM22.0003 15.6654L22.0003 15.6654L18.5362 17.6654C19.6408 19.5785 22.0872 20.234 24.0003 19.1295L22.0003 15.6654ZM31.5266 10.1654L22.0003 15.6654L24.0003 19.1295L33.5266 13.6295L31.5266 10.1654ZM31.5271 10.165L31.5266 10.1654L33.5266 13.6295C35.017 12.769 35.7405 11.0974 35.4716 9.50069L31.5271 10.165ZM31.5266 9.50033L31.5271 9.50069L35.4716 10.165C35.7405 8.56829 35.017 6.89672 33.5266 6.03623L31.5266 9.50033ZM22.0003 4.00033L31.5266 9.50033L33.5266 6.03623L24.0003 0.536232L22.0003 4.00033Z" fill="white" mask="url(#path-1-outside-1_374_36)"/>
<mask id="path-3-outside-2_374_36" maskUnits="userSpaceOnUse" x="-1" y="-1" width="19" height="21" fill="black">
<rect fill="white" x="-1" y="-1" width="19" height="21"/>
<path fill-rule="evenodd" clip-rule="evenodd" d="M5.00033 2.26828C4.04375 1.716 2.82057 2.04375 2.26828 3.00033C1.716 3.95692 2.04375 5.1801 3.00033 5.73238L10.1026 9.83285L3.00033 13.9333C2.04375 14.4856 1.716 15.7088 2.26828 16.6654C2.82057 17.622 4.04375 17.9497 5.00033 17.3974L14.5266 11.8974C15.2705 11.468 15.6341 10.6328 15.4993 9.83286C15.6341 9.03286 15.2705 8.19774 14.5266 7.76828L5.00033 2.26828Z"/>
</mask>
<path fill-rule="evenodd" clip-rule="evenodd" d="M5.00033 2.26828C4.04375 1.716 2.82057 2.04375 2.26828 3.00033C1.716 3.95692 2.04375 5.1801 3.00033 5.73238L10.1026 9.83285L3.00033 13.9333C2.04375 14.4856 1.716 15.7088 2.26828 16.6654C2.82057 17.622 4.04375 17.9497 5.00033 17.3974L14.5266 11.8974C15.2705 11.468 15.6341 10.6328 15.4993 9.83286C15.6341 9.03286 15.2705 8.19774 14.5266 7.76828L5.00033 2.26828Z" fill="#8F65E9"/>
<path d="M2.26828 3.00033L4.00033 4.00033L2.26828 3.00033ZM5.00033 2.26828L4.00033 4.00033L4.00033 4.00033L5.00033 2.26828ZM3.00033 5.73238L4.00033 4.00033L3.00033 5.73238ZM10.1026 9.83285L11.1026 11.5649L14.1026 9.83285L11.1026 8.1008L10.1026 9.83285ZM3.00033 13.9333L2.00033 12.2013L2.00033 12.2013L3.00033 13.9333ZM5.00033 17.3974L6.00033 19.1295L6.00033 19.1295L5.00033 17.3974ZM14.5266 11.8974L15.5266 13.6295L15.5266 13.6295L14.5266 11.8974ZM15.4993 9.83286L13.5271 9.50069L13.4712 9.83286L13.5271 10.165L15.4993 9.83286ZM14.5266 7.76828L15.5266 6.03623L15.5266 6.03623L14.5266 7.76828ZM4.00033 4.00033L4.00033 4.00033L6.00033 0.536232C4.08716 -0.568337 1.6408 0.0871635 0.536232 2.00033L4.00033 4.00033ZM4.00033 4.00033L4.00033 4.00033L0.536232 2.00033C-0.568337 3.9135 0.0871632 6.35987 2.00033 7.46444L4.00033 4.00033ZM11.1026 8.1008L4.00033 4.00033L2.00033 7.46444L9.10255 11.5649L11.1026 8.1008ZM4.00033 15.6654L11.1026 11.5649L9.10255 8.1008L2.00033 12.2013L4.00033 15.6654ZM4.00033 15.6654L4.00033 15.6654L2.00033 12.2013C0.087164 13.3058 -0.568337 15.7522 0.536232 17.6654L4.00033 15.6654ZM4.00033 15.6654L4.00033 15.6654L0.536232 17.6654C1.6408 19.5785 4.08716 20.234 6.00033 19.1295L4.00033 15.6654ZM13.5266 10.1654L4.00033 15.6654L6.00033 19.1295L15.5266 13.6295L13.5266 10.1654ZM13.5271 10.165L13.5266 10.1654L15.5266 13.6295C17.017 12.769 17.7405 11.0974 17.4716 9.50069L13.5271 10.165ZM13.5266 9.50033L13.5271 9.50069L17.4716 10.165C17.7405 8.56829 17.017 6.89672 15.5266 6.03623L13.5266 9.50033ZM4.00033 4.00033L13.5266 9.50033L15.5266 6.03623L6.00033 0.536232L4.00033 4.00033Z" fill="white" mask="url(#path-3-outside-2_374_36)"/>
</svg>
