<svg width="39" height="40" viewBox="0 0 39 40" fill="none" xmlns="http://www.w3.org/2000/svg">
<path d="M37.9059 37.3348L28.4824 13.6333C28.3342 13.2733 28.0841 12.9645 27.7628 12.7446C27.4415 12.5248 27.0631 12.4036 26.6739 12.3958H24.7701C24.3809 12.4036 24.0024 12.5248 23.6812 12.7446C23.3599 12.9645 23.1098 13.2733 22.9616 13.6333L18.3926 25.1509C16.4237 24.0568 14.6275 22.6775 13.0621 21.0578C16.2985 17.2504 18.6782 12.6814 18.9637 8.58837H20.8675C21.3378 8.59696 21.7961 8.43941 22.1617 8.14343C22.5273 7.84745 22.7769 7.432 22.8664 6.97019C22.9078 6.69734 22.8894 6.41876 22.8124 6.15373C22.7355 5.8887 22.6019 5.64357 22.4208 5.43532C22.2397 5.22707 22.0155 5.06068 21.7637 4.94768C21.5119 4.83468 21.2386 4.77777 20.9626 4.7809H12.8718V2.02048C12.8804 1.55015 12.7228 1.09185 12.4268 0.726229C12.1309 0.360606 11.7154 0.111081 11.2536 0.0215575C10.9807 -0.0198559 10.7022 -0.00145329 10.4371 0.0754905C10.1721 0.152434 9.92697 0.28608 9.71872 0.467166C9.51047 0.648253 9.34408 0.872452 9.23108 1.12423C9.11808 1.376 9.06118 1.64934 9.0643 1.92529V4.7809H2.02048C1.55015 4.7723 1.09185 4.92985 0.726229 5.22583C0.360606 5.52181 0.111081 5.93726 0.0215575 6.39907C-0.0198559 6.67192 -0.00145329 6.95051 0.0754905 7.21553C0.152434 7.48056 0.28608 7.72569 0.467166 7.93394C0.648253 8.14219 0.872451 8.30858 1.12423 8.42158C1.376 8.53458 1.64934 8.59149 1.92529 8.58837H15.1563C14.8707 11.444 12.967 14.9659 10.4921 18.2022C9.34499 16.7377 8.32592 15.1772 7.44613 13.5381C7.26619 13.1479 6.96532 12.8261 6.58812 12.6204C6.21093 12.4146 5.77747 12.3359 5.35202 12.3958C5.05885 12.4508 4.78269 12.5738 4.5458 12.7551C4.30892 12.9364 4.11794 13.1707 3.98827 13.4394C3.8586 13.708 3.79385 14.0033 3.79926 14.3015C3.80467 14.5997 3.88007 14.8925 4.0194 15.1563C5.12993 17.2429 6.43672 19.219 7.92206 21.0578C6.0058 23.0326 3.74852 24.645 1.25899 25.8172C0.843482 25.9989 0.498198 26.3106 0.275049 26.7054C0.051899 27.1002 -0.0370563 27.5568 0.0215575 28.0065C0.110559 28.4429 0.349807 28.8344 0.697655 29.1127C1.0455 29.391 1.47992 29.5384 1.92529 29.5295L2.68679 29.3391C5.61788 28.0152 8.2676 26.1411 10.4921 23.8183C12.391 25.7553 14.5736 27.3922 16.9648 28.6728L13.5381 37.3348C13.4126 37.6221 13.3601 37.9359 13.3851 38.2484C13.4101 38.5608 13.5119 38.8623 13.6814 39.126C13.8509 39.3897 14.0829 39.6074 14.3568 39.7599C14.6307 39.9124 14.938 39.9948 15.2514 40C15.6378 39.9809 16.0113 39.8552 16.3305 39.6367C16.6497 39.4183 16.9022 39.1157 17.06 38.7626L20.7723 29.5295H30.6717L34.384 38.7626C34.5417 39.1157 34.7942 39.4183 35.1135 39.6367C35.4327 39.8552 35.8062 39.9809 36.1925 40C36.506 39.9948 36.8133 39.9124 37.0872 39.7599C37.3611 39.6074 37.5931 39.3897 37.7626 39.126C37.9321 38.8623 38.0339 38.5608 38.0589 38.2484C38.0839 37.9359 38.0313 37.6221 37.9059 37.3348ZM22.2953 25.722L25.722 17.06L29.1487 25.722H22.2953Z" fill="#9595A6"/>
</svg>
