<svg width="40" height="40" viewBox="0 0 40 40" fill="none" xmlns="http://www.w3.org/2000/svg">
  <path d="M36.7966 -7.48264e-05H3.42469C2.99455 -0.020223 2.56464 0.0446467 2.1596 0.190858C1.75456 0.33707 1.38235 0.561723 1.06423 0.851947C0.746132 1.1422 0.488381 1.49234 0.305772 1.8823C0.123164 2.27229 0.0192482 2.69445 0 3.12464V36.5716C0.0251977 37.4718 0.394113 38.3285 1.03098 38.9652C1.66785 39.6021 2.52437 39.9711 3.42469 39.9963H36.7966C37.6718 39.9573 38.497 39.5769 39.0952 38.9367C39.6934 38.2965 40.0168 37.4476 39.9963 36.5716V3.12464C40.0036 2.70593 39.9251 2.29019 39.7659 1.90288C39.6066 1.51559 39.3699 1.16489 39.0702 0.872295C38.7707 0.579722 38.4145 0.351444 38.0235 0.201432C37.6326 0.0514211 37.2151 -0.0171483 36.7966 -7.48264e-05ZM12.4989 33.3469H6.67439V15.5236H12.4989V33.3469ZM9.72411 12.8238C9.31767 12.8379 8.91268 12.7679 8.53462 12.618C8.15653 12.4682 7.81351 12.2418 7.52714 11.9531C7.24074 11.6643 7.01713 11.3195 6.8704 10.9402C6.72363 10.5609 6.65692 10.1553 6.67439 9.74903C6.65642 9.33832 6.72448 8.92841 6.87425 8.54557C7.02401 8.1627 7.25214 7.81539 7.54398 7.52589C7.83586 7.23636 8.185 7.01106 8.56904 6.86442C8.9531 6.71776 9.36357 6.65302 9.7741 6.67431C10.1805 6.66017 10.5855 6.73018 10.9636 6.88002C11.3417 7.02986 11.6847 7.25626 11.9711 7.54501C12.2575 7.83376 12.4811 8.1786 12.6278 8.55789C12.7746 8.93718 12.8413 9.34272 12.8238 9.74903C12.8418 10.1597 12.7737 10.5697 12.624 10.9525C12.4742 11.3354 12.2461 11.6827 11.9542 11.9722C11.6624 12.2617 11.3132 12.487 10.9292 12.6336C10.5451 12.7803 10.1346 12.845 9.72411 12.8238ZM33.3469 33.3469H27.4975V23.5978C27.4975 21.2731 26.6726 19.6732 24.5977 19.6732C23.9533 19.6787 23.3261 19.8834 22.8027 20.2594C22.279 20.6354 21.8845 21.1641 21.673 21.773C21.5105 22.2295 21.4425 22.7142 21.473 23.1979V33.3469H15.7236V15.5236H21.473V18.0234C21.9842 17.0842 22.7449 16.3048 23.6713 15.7708C24.5977 15.2371 25.6537 14.9698 26.7226 14.9986C30.4972 14.9986 33.3469 17.4984 33.3469 22.8229V33.3469Z" fill="#8F65E9"/>
</svg>
