<svg width="24" height="40" viewBox="0 0 24 40" fill="none" xmlns="http://www.w3.org/2000/svg">
  <path fill-rule="evenodd" clip-rule="evenodd" d="M17.59 0H6.41C4.18 0 3.372 0.232 2.558 0.668C1.75277 1.09427 1.09427 1.75277 0.668 2.558C0.232 3.372 0 4.18 0 6.41V33.59C0 35.818 0.232 36.628 0.668 37.442C1.104 38.256 1.744 38.896 2.558 39.332C3.372 39.768 4.18 40 6.41 40H17.59C19.818 40 20.628 39.768 21.442 39.332C22.256 38.896 22.896 38.256 23.332 37.442C23.768 36.628 24 35.82 24 33.59V6.41C24 4.18 23.768 3.372 23.332 2.558C22.9057 1.75277 22.2472 1.09427 21.442 0.668C20.628 0.232 19.82 0 17.59 0ZM4 31.99V8.01H20V31.99H4Z" fill="#8F65E9"/>
</svg>
