<svg width="97" height="53" viewBox="0 0 97 53" fill="none" xmlns="http://www.w3.org/2000/svg">
  <path d="M3 38.2321C1.66667 37.4623 1.66667 35.5377 3 34.7679L12.75 29.1388C14.0833 28.369 15.75 29.3312 15.75 30.8708L15.75 42.1292C15.75 43.6688 14.0833 44.631 12.75 43.8612L3 38.2321Z" fill="#9595A6"/>
  <path d="M71.6913 26.2141C71.6913 24.6745 73.358 23.7123 74.6913 24.4821L88.9413 32.7093C90.2747 33.4791 90.2747 35.4036 88.9413 36.1734L74.6913 44.4006C73.358 45.1704 71.6913 44.2082 71.6913 42.6686L71.6913 26.2141Z" fill="#9595A6"/>
  <rect x="20" y="10" width="12" height="35" rx="2" fill="#9595A6"/>
  <rect x="37" y="5" width="12" height="40" rx="2" fill="#9595A6"/>
  <rect x="54" width="12" height="45" rx="2" fill="#9595A6"/>
</svg>
